<?xml version="1.0" encoding="utf-8"?>
<!-- Generator: Adobe Illustrator 21.1.0, SVG Export Plug-In . SVG Version: 6.00 Build 0)  -->
<svg version="1.1" xmlns="http://www.w3.org/2000/svg" xmlns:xlink="http://www.w3.org/1999/xlink" x="0px" y="0px"
	 viewBox="0 0 101.8 34.1" style="enable-background:new 0 0 101.8 34.1;" xml:space="preserve">
<g id="Layer_1">
	<g>
		<path style="fill:#663399;" d="M95.9,27.9h-90c-2.8,0-5-2.2-5-5v-17c0-2.8,2.2-5,5-5h90c2.8,0,5,2.2,5,5v17
			C100.9,25.6,98.6,27.9,95.9,27.9z"/>
		<g>
			<radialGradient id="SVGID_1_" cx="50.875" cy="14.375" r="37.0557" gradientUnits="userSpaceOnUse">
				<stop  offset="0.7388" style="stop-color:#FFFFFF;stop-opacity:0"/>
				<stop  offset="0.8057" style="stop-color:#FFFFFF;stop-opacity:0.4301"/>
				<stop  offset="0.8165" style="stop-color:#FFFFFF;stop-opacity:0.5"/>
				<stop  offset="0.8231" style="stop-color:#DBC01F"/>
				<stop  offset="0.8304" style="stop-color:#F1DC3A"/>
				<stop  offset="0.835" style="stop-color:#F5E13F"/>
				<stop  offset="0.8386" style="stop-color:#DBC01F"/>
				<stop  offset="0.8523" style="stop-color:#E1CB46"/>
				<stop  offset="0.872" style="stop-color:#E9D976"/>
				<stop  offset="0.8922" style="stop-color:#F0E4A0"/>
				<stop  offset="0.9126" style="stop-color:#F5EEC3"/>
				<stop  offset="0.9332" style="stop-color:#FAF5DD"/>
				<stop  offset="0.9543" style="stop-color:#FDFBF0"/>
				<stop  offset="0.976" style="stop-color:#FEFEFB"/>
				<stop  offset="0.9993" style="stop-color:#FFFFFF"/>
			</radialGradient>
			<path style="fill:none;stroke:url(#SVGID_1_);stroke-miterlimit:10;" d="M90.6,27.9H5.9c-2.8,0-5-2.2-5-5v-17c0-2.8,2.2-5,5-5h90
				c2.8,0,5,2.2,5,5v17c0,2.8-2.2,5-5,5"/>
			<g>
				<radialGradient id="SVGID_2_" cx="50.875" cy="14.375" r="37.0557" gradientUnits="userSpaceOnUse">
					<stop  offset="0.7388" style="stop-color:#FFFFFF;stop-opacity:0"/>
					<stop  offset="0.8057" style="stop-color:#FFFFFF;stop-opacity:0.4301"/>
					<stop  offset="0.8165" style="stop-color:#FFFFFF;stop-opacity:0.5"/>
					<stop  offset="0.8231" style="stop-color:#DBC01F"/>
					<stop  offset="0.8304" style="stop-color:#F1DC3A"/>
					<stop  offset="0.835" style="stop-color:#F5E13F"/>
					<stop  offset="0.8386" style="stop-color:#DBC01F"/>
					<stop  offset="0.8523" style="stop-color:#E1CB46"/>
					<stop  offset="0.872" style="stop-color:#E9D976"/>
					<stop  offset="0.8922" style="stop-color:#F0E4A0"/>
					<stop  offset="0.9126" style="stop-color:#F5EEC3"/>
					<stop  offset="0.9332" style="stop-color:#FAF5DD"/>
					<stop  offset="0.9543" style="stop-color:#FDFBF0"/>
					<stop  offset="0.976" style="stop-color:#FEFEFB"/>
					<stop  offset="0.9993" style="stop-color:#FFFFFF"/>
				</radialGradient>
				<polygon style="fill:url(#SVGID_2_);" points="89.8,33.9 89.8,21.8 95.9,27.9 				"/>
			</g>
		</g>
	</g>
	<g>
		<path style="fill:#FFFFFF;" d="M14.7,18.7c0,0.3-0.1,0.5-0.3,0.6c-0.2,0.2-0.4,0.2-0.6,0.2h-3.1c-0.3,0-0.5-0.1-0.6-0.2
			c-0.2-0.2-0.2-0.4-0.2-0.6V8.2C9.8,8,9.9,7.8,10,7.6c0.2-0.2,0.4-0.2,0.6-0.2h3.1c0.3,0,0.5,0.1,0.6,0.2c0.2,0.2,0.3,0.4,0.3,0.6
			v2.8h-1.1V8.3h-2.7v10.3h2.7v-3h1.1V18.7z"/>
		<path style="fill:#FFFFFF;" d="M20.8,18.7c0,0.6-0.3,0.9-0.9,0.9h-2.6c-0.6,0-0.9-0.3-0.9-0.9v-5.8c0-0.6,0.3-0.9,0.9-0.9H20
			c0.6,0,0.9,0.3,0.9,0.9V18.7z M19.8,18.7v-5.8h-2.3v5.8H19.8z"/>
		<path style="fill:#FFFFFF;" d="M30.2,19.6h-1v-6.7L26.9,13v6.6h-1v-6.7L23.6,13v6.6h-1V12h1v0.2c0.4-0.1,0.8-0.1,1.2-0.2
			C25.3,12,25.7,12,26,12c0.3,0,0.6,0.1,0.7,0.3c0.4-0.1,0.9-0.1,1.3-0.2c0.6-0.1,1-0.1,1.3-0.1c0.6,0,0.9,0.3,0.9,0.9V19.6z"/>
		<path style="fill:#FFFFFF;" d="M36.2,18c0,0.5-0.2,0.9-0.5,1.2c-0.3,0.3-0.7,0.5-1.2,0.5h-1.7v2.9h-1V12h1v0.2
			c0.4-0.1,0.8-0.1,1.2-0.2c0.5-0.1,0.9-0.1,1.2-0.1c0.6,0,0.9,0.3,0.9,0.9V18z M35.2,17.8v-4.9L32.9,13v5.7h1.4
			C34.9,18.7,35.2,18.4,35.2,17.8z"/>
		<path style="fill:#FFFFFF;" d="M39,19.6h-1V7.4h1V19.6z"/>
		<path style="fill:#FFFFFF;" d="M45,18.7c0,0.6-0.3,0.9-0.9,0.9h-2.5c-0.6,0-0.9-0.3-0.9-0.9v-5.8c0-0.6,0.3-0.9,0.9-0.9h2.5
			c0.6,0,0.9,0.3,0.9,0.9v2.7L44.6,16h-2.9v2.8H44v-1.4h1V18.7z M44,15.2v-2.3h-2.2v2.3H44z"/>
		<path style="fill:#FFFFFF;" d="M49.4,19.6H48c-0.6,0-0.9-0.3-0.9-0.9v-5.8h-0.9V12h0.9V9.6h1V12h1.3v0.9h-1.3v5.8h1.3V19.6z"/>
		<path style="fill:#FFFFFF;" d="M55,18.7c0,0.6-0.3,0.9-0.9,0.9h-2.5c-0.6,0-0.9-0.3-0.9-0.9v-5.8c0-0.6,0.3-0.9,0.9-0.9h2.5
			c0.6,0,0.9,0.3,0.9,0.9v2.7L54.7,16h-2.9v2.8H54v-1.4h1V18.7z M54,15.2v-2.3h-2.2v2.3H54z"/>
		<path style="fill:#FFFFFF;" d="M65.2,18.7c0,0.3-0.1,0.5-0.2,0.6s-0.4,0.2-0.6,0.2h-3.4c-0.3,0-0.5-0.1-0.6-0.2
			C60.1,19.2,60,19,60,18.7V8.2c0-0.3,0.1-0.5,0.2-0.6c0.2-0.2,0.4-0.2,0.6-0.2h3.4c0.3,0,0.5,0.1,0.6,0.2c0.2,0.2,0.2,0.4,0.2,0.6
			V18.7z M64.1,18.6V8.3h-3v10.3H64.1z"/>
		<path style="fill:#FFFFFF;" d="M71,14.5h-1v-1.6L68,13v6.6h-1V12h1v0.2c0.3-0.1,0.7-0.1,1-0.2c0.4-0.1,0.8-0.1,1-0.1
			c0.6,0,0.9,0.3,0.9,0.9V14.5z"/>
		<path style="fill:#FFFFFF;" d="M76.6,19.6h-1v-0.2c-1.1,0.2-1.7,0.3-1.9,0.3c-0.4,0-0.8-0.1-1.1-0.4c-0.3-0.3-0.4-0.7-0.4-1.1
			v-4.4c0-0.5,0.2-0.9,0.5-1.2c0.3-0.3,0.7-0.5,1.2-0.5h1.7V7.4h1V19.6z M75.6,18.7v-5.7h-1.4c-0.6,0-0.9,0.3-0.9,0.9v4.1
			c0,0.6,0.3,0.9,0.9,0.9C74.3,18.7,74.8,18.7,75.6,18.7z"/>
		<path style="fill:#FFFFFF;" d="M82.6,18.7c0,0.6-0.3,0.9-0.9,0.9h-2.5c-0.6,0-0.9-0.3-0.9-0.9v-5.8c0-0.6,0.3-0.9,0.9-0.9h2.5
			c0.6,0,0.9,0.3,0.9,0.9v2.7L82.2,16h-2.9v2.8h2.2v-1.4h1V18.7z M81.6,15.2v-2.3h-2.2v2.3H81.6z"/>
		<path style="fill:#FFFFFF;" d="M88.3,14.5h-1v-1.6L85.3,13v6.6h-1V12h1v0.2c0.3-0.1,0.7-0.1,1-0.2c0.4-0.1,0.8-0.1,1-0.1
			c0.6,0,0.9,0.3,0.9,0.9V14.5z"/>
		<path style="fill:#FFFFFF;" d="M90.9,7.4l-0.2,9.5H90l-0.2-9.5H90.9z M90.9,19.6h-1.2v-1.4h1.2V19.6z"/>
	</g>
</g>
<g id="Layer_2" style="display:none;">
</g>
</svg>
